<?xml version="1.0" encoding="UTF-8" standalone="no"?>
<!DOCTYPE svg PUBLIC "-//W3C//DTD SVG 1.1//EN"
 "http://www.w3.org/Graphics/SVG/1.1/DTD/svg11.dtd">
<!-- Generated by graphviz version 2.43.0 (0)
 -->
<!-- Title: fiftyone_devicedetection_onpremise.DeviceDetectionHashEngineModule.ResultsHashSwig Pages: 1 -->
<svg width="756pt" height="50pt"
 viewBox="0.00 0.00 756.00 50.00" xmlns="http://www.w3.org/2000/svg" xmlns:xlink="http://www.w3.org/1999/xlink">
<g id="graph0" class="graph" transform="scale(1 1) rotate(0) translate(4 46)">
<title>fiftyone_devicedetection_onpremise.DeviceDetectionHashEngineModule.ResultsHashSwig</title>
<!-- Node4 -->
<g id="node1" class="node">
<title>Node4</title>
<g id="a_node1"><a xlink:title=" ">
<polygon fill="#bfbfbf" stroke="black" points="566,-0.5 566,-41.5 748,-41.5 748,-0.5 566,-0.5"/>
<text text-anchor="start" x="574" y="-29.5" font-family="Helvetica,sans-Serif" font-size="10.00">fiftyone_devicedetection</text>
<text text-anchor="start" x="574" y="-18.5" font-family="Helvetica,sans-Serif" font-size="10.00">_onpremise.DeviceDetectionHash</text>
<text text-anchor="middle" x="657" y="-7.5" font-family="Helvetica,sans-Serif" font-size="10.00">EngineModule.ResultsHashSwig</text>
</a>
</g>
</g>
<!-- Node5 -->
<g id="node2" class="node">
<title>Node5</title>
<g id="a_node2"><a xlink:href="classfiftyone__devicedetection__onpremise_1_1_device_detection_hash_engine_module_1_1_results_device_detection_swig.html" target="_top" xlink:title=" ">
<polygon fill="none" stroke="black" points="301,-0.5 301,-41.5 530,-41.5 530,-0.5 301,-0.5"/>
<text text-anchor="start" x="309" y="-29.5" font-family="Helvetica,sans-Serif" font-size="10.00">fiftyone_devicedetection</text>
<text text-anchor="start" x="309" y="-18.5" font-family="Helvetica,sans-Serif" font-size="10.00">_onpremise.DeviceDetectionHash</text>
<text text-anchor="middle" x="415.5" y="-7.5" font-family="Helvetica,sans-Serif" font-size="10.00">EngineModule.ResultsDeviceDetectionSwig</text>
</a>
</g>
</g>
<!-- Node5&#45;&gt;Node4 -->
<g id="edge1" class="edge">
<title>Node5&#45;&gt;Node4</title>
<path fill="none" stroke="midnightblue" d="M540.38,-21C548.97,-21 557.54,-21 565.89,-21"/>
<polygon fill="midnightblue" stroke="midnightblue" points="540.29,-17.5 530.29,-21 540.29,-24.5 540.29,-17.5"/>
</g>
<!-- Node6 -->
<g id="node3" class="node">
<title>Node6</title>
<g id="a_node3"><a xlink:href="classfiftyone__devicedetection__onpremise_1_1_device_detection_hash_engine_module_1_1_results_base_swig.html" target="_top" xlink:title=" ">
<polygon fill="none" stroke="black" points="83,-0.5 83,-41.5 265,-41.5 265,-0.5 83,-0.5"/>
<text text-anchor="start" x="91" y="-29.5" font-family="Helvetica,sans-Serif" font-size="10.00">fiftyone_devicedetection</text>
<text text-anchor="start" x="91" y="-18.5" font-family="Helvetica,sans-Serif" font-size="10.00">_onpremise.DeviceDetectionHash</text>
<text text-anchor="middle" x="174" y="-7.5" font-family="Helvetica,sans-Serif" font-size="10.00">EngineModule.ResultsBaseSwig</text>
</a>
</g>
</g>
<!-- Node6&#45;&gt;Node5 -->
<g id="edge2" class="edge">
<title>Node6&#45;&gt;Node5</title>
<path fill="none" stroke="midnightblue" d="M275.41,-21C283.84,-21 292.4,-21 300.93,-21"/>
<polygon fill="midnightblue" stroke="midnightblue" points="275.2,-17.5 265.2,-21 275.2,-24.5 275.2,-17.5"/>
</g>
<!-- Node7 -->
<g id="node4" class="node">
<title>Node7</title>
<g id="a_node4"><a xlink:title=" ">
<polygon fill="none" stroke="#bfbfbf" points="0,-11.5 0,-30.5 47,-30.5 47,-11.5 0,-11.5"/>
<text text-anchor="middle" x="23.5" y="-18.5" font-family="Helvetica,sans-Serif" font-size="10.00">object</text>
</a>
</g>
</g>
<!-- Node7&#45;&gt;Node6 -->
<g id="edge3" class="edge">
<title>Node7&#45;&gt;Node6</title>
<path fill="none" stroke="midnightblue" d="M57.17,-21C65.04,-21 73.84,-21 82.97,-21"/>
<polygon fill="midnightblue" stroke="midnightblue" points="57.05,-17.5 47.05,-21 57.05,-24.5 57.05,-17.5"/>
</g>
</g>
</svg>
