<?xml version="1.0" encoding="UTF-8" standalone="no"?>
<!DOCTYPE svg PUBLIC "-//W3C//DTD SVG 1.1//EN"
 "http://www.w3.org/Graphics/SVG/1.1/DTD/svg11.dtd">
<!-- Generated by graphviz version 2.43.0 (0)
 -->
<!-- Title: fiftyone_devicedetection_onpremise.DeviceDetectionHashEngineModule.EvidenceBaseSwig Pages: 1 -->
<svg width="499pt" height="50pt"
 viewBox="0.00 0.00 499.00 50.00" xmlns="http://www.w3.org/2000/svg" xmlns:xlink="http://www.w3.org/1999/xlink">
<g id="graph0" class="graph" transform="scale(1 1) rotate(0) translate(4 46)">
<title>fiftyone_devicedetection_onpremise.DeviceDetectionHashEngineModule.EvidenceBaseSwig</title>
<!-- Node4 -->
<g id="node1" class="node">
<title>Node4</title>
<g id="a_node1"><a xlink:title=" ">
<polygon fill="#bfbfbf" stroke="black" points="309,-0.5 309,-41.5 491,-41.5 491,-0.5 309,-0.5"/>
<text text-anchor="start" x="317" y="-29.5" font-family="Helvetica,sans-Serif" font-size="10.00">fiftyone_devicedetection</text>
<text text-anchor="start" x="317" y="-18.5" font-family="Helvetica,sans-Serif" font-size="10.00">_onpremise.DeviceDetectionHash</text>
<text text-anchor="middle" x="400" y="-7.5" font-family="Helvetica,sans-Serif" font-size="10.00">EngineModule.EvidenceBaseSwig</text>
</a>
</g>
</g>
<!-- Node5 -->
<g id="node2" class="node">
<title>Node5</title>
<g id="a_node2"><a xlink:href="classfiftyone__devicedetection__onpremise_1_1_device_detection_hash_engine_module_1_1_map_string_string_swig.html" target="_top" xlink:title=" ">
<polygon fill="none" stroke="black" points="83,-0.5 83,-41.5 273,-41.5 273,-0.5 83,-0.5"/>
<text text-anchor="start" x="91" y="-29.5" font-family="Helvetica,sans-Serif" font-size="10.00">fiftyone_devicedetection</text>
<text text-anchor="start" x="91" y="-18.5" font-family="Helvetica,sans-Serif" font-size="10.00">_onpremise.DeviceDetectionHash</text>
<text text-anchor="middle" x="178" y="-7.5" font-family="Helvetica,sans-Serif" font-size="10.00">EngineModule.MapStringStringSwig</text>
</a>
</g>
</g>
<!-- Node5&#45;&gt;Node4 -->
<g id="edge1" class="edge">
<title>Node5&#45;&gt;Node4</title>
<path fill="none" stroke="midnightblue" d="M283.52,-21C291.96,-21 300.45,-21 308.78,-21"/>
<polygon fill="midnightblue" stroke="midnightblue" points="283.26,-17.5 273.26,-21 283.26,-24.5 283.26,-17.5"/>
</g>
<!-- Node6 -->
<g id="node3" class="node">
<title>Node6</title>
<g id="a_node3"><a xlink:title=" ">
<polygon fill="none" stroke="#bfbfbf" points="0,-11.5 0,-30.5 47,-30.5 47,-11.5 0,-11.5"/>
<text text-anchor="middle" x="23.5" y="-18.5" font-family="Helvetica,sans-Serif" font-size="10.00">object</text>
</a>
</g>
</g>
<!-- Node6&#45;&gt;Node5 -->
<g id="edge2" class="edge">
<title>Node6&#45;&gt;Node5</title>
<path fill="none" stroke="midnightblue" d="M57.09,-21C64.94,-21 73.74,-21 82.89,-21"/>
<polygon fill="midnightblue" stroke="midnightblue" points="57,-17.5 47,-21 57,-24.5 57,-17.5"/>
</g>
</g>
</svg>
