<?xml version="1.0" encoding="UTF-8" standalone="no"?>
<!DOCTYPE svg PUBLIC "-//W3C//DTD SVG 1.1//EN"
 "http://www.w3.org/Graphics/SVG/1.1/DTD/svg11.dtd">
<!-- Generated by graphviz version 2.43.0 (0)
 -->
<!-- Title: fiftyone_devicedetection_onpremise.DeviceDetectionHashEngineModule.EngineHashSwig Pages: 1 -->
<svg width="753pt" height="50pt"
 viewBox="0.00 0.00 753.00 50.00" xmlns="http://www.w3.org/2000/svg" xmlns:xlink="http://www.w3.org/1999/xlink">
<g id="graph0" class="graph" transform="scale(1 1) rotate(0) translate(4 46)">
<title>fiftyone_devicedetection_onpremise.DeviceDetectionHashEngineModule.EngineHashSwig</title>
<!-- Node0 -->
<g id="node1" class="node">
<title>Node0</title>
<g id="a_node1"><a xlink:title=" ">
<polygon fill="#bfbfbf" stroke="black" points="563,-0.5 563,-41.5 745,-41.5 745,-0.5 563,-0.5"/>
<text text-anchor="start" x="571" y="-29.5" font-family="Helvetica,sans-Serif" font-size="10.00">fiftyone_devicedetection</text>
<text text-anchor="start" x="571" y="-18.5" font-family="Helvetica,sans-Serif" font-size="10.00">_onpremise.DeviceDetectionHash</text>
<text text-anchor="middle" x="654" y="-7.5" font-family="Helvetica,sans-Serif" font-size="10.00">EngineModule.EngineHashSwig</text>
</a>
</g>
</g>
<!-- Node1 -->
<g id="node2" class="node">
<title>Node1</title>
<g id="a_node2"><a xlink:href="classfiftyone__devicedetection__onpremise_1_1_device_detection_hash_engine_module_1_1_engine_device_detection_swig.html" target="_top" xlink:title=" ">
<polygon fill="none" stroke="black" points="301,-0.5 301,-41.5 527,-41.5 527,-0.5 301,-0.5"/>
<text text-anchor="start" x="309" y="-29.5" font-family="Helvetica,sans-Serif" font-size="10.00">fiftyone_devicedetection</text>
<text text-anchor="start" x="309" y="-18.5" font-family="Helvetica,sans-Serif" font-size="10.00">_onpremise.DeviceDetectionHash</text>
<text text-anchor="middle" x="414" y="-7.5" font-family="Helvetica,sans-Serif" font-size="10.00">EngineModule.EngineDeviceDetectionSwig</text>
</a>
</g>
</g>
<!-- Node1&#45;&gt;Node0 -->
<g id="edge1" class="edge">
<title>Node1&#45;&gt;Node0</title>
<path fill="none" stroke="midnightblue" d="M537.22,-21C545.89,-21 554.54,-21 562.99,-21"/>
<polygon fill="midnightblue" stroke="midnightblue" points="537.03,-17.5 527.03,-21 537.03,-24.5 537.03,-17.5"/>
</g>
<!-- Node2 -->
<g id="node3" class="node">
<title>Node2</title>
<g id="a_node3"><a xlink:href="classfiftyone__devicedetection__onpremise_1_1_device_detection_hash_engine_module_1_1_engine_base_swig.html" target="_top" xlink:title=" ">
<polygon fill="none" stroke="black" points="83,-0.5 83,-41.5 265,-41.5 265,-0.5 83,-0.5"/>
<text text-anchor="start" x="91" y="-29.5" font-family="Helvetica,sans-Serif" font-size="10.00">fiftyone_devicedetection</text>
<text text-anchor="start" x="91" y="-18.5" font-family="Helvetica,sans-Serif" font-size="10.00">_onpremise.DeviceDetectionHash</text>
<text text-anchor="middle" x="174" y="-7.5" font-family="Helvetica,sans-Serif" font-size="10.00">EngineModule.EngineBaseSwig</text>
</a>
</g>
</g>
<!-- Node2&#45;&gt;Node1 -->
<g id="edge2" class="edge">
<title>Node2&#45;&gt;Node1</title>
<path fill="none" stroke="midnightblue" d="M275.44,-21C283.79,-21 292.28,-21 300.71,-21"/>
<polygon fill="midnightblue" stroke="midnightblue" points="275.32,-17.5 265.32,-21 275.32,-24.5 275.32,-17.5"/>
</g>
<!-- Node3 -->
<g id="node4" class="node">
<title>Node3</title>
<g id="a_node4"><a xlink:title=" ">
<polygon fill="none" stroke="#bfbfbf" points="0,-11.5 0,-30.5 47,-30.5 47,-11.5 0,-11.5"/>
<text text-anchor="middle" x="23.5" y="-18.5" font-family="Helvetica,sans-Serif" font-size="10.00">object</text>
</a>
</g>
</g>
<!-- Node3&#45;&gt;Node2 -->
<g id="edge3" class="edge">
<title>Node3&#45;&gt;Node2</title>
<path fill="none" stroke="midnightblue" d="M57.17,-21C65.04,-21 73.84,-21 82.97,-21"/>
<polygon fill="midnightblue" stroke="midnightblue" points="57.05,-17.5 47.05,-21 57.05,-24.5 57.05,-17.5"/>
</g>
</g>
</svg>
